PathFileType	4	(X/Y/Z)	Patient4_TMGait_0pt8_01_left_48.trc.trc
DataRate	CameraRate	NumFrames	NumMarkers	Units	OrigDataRate	OrigDataStartFrame	OrigNumFrames
86.956521739130	86.956521739130	4	33	mm	86.956521739130	71	       141
Frame#	Time	Sacral			L.Shoulder			Chest			R.Shoulder			Neck			R.ASIS			L.ASIS			R.Thigh.Superior			R.Thigh.Lateral			R.Thigh.Inferior			R.Patella			L.Thigh.Superior			L.Thigh.Lateral			L.Thigh.Inferior			L.Patella			L.Shank.Superior			L.Shank.Lateral			L.Shank.Inferior			R.Shank.Superior			R.Shank.Lateral			R.Shank.Inferior			R.Heel			R.Midfoot.Superior			R.Midfoot.Lateral			R.Toe			L.Heel			L.Midfoot.Lateral			L.Midfoot.Superior			L.Toe			L.Elbow			L.Wrist			R.Elbow			R.Wrist			
		X1	Y1	Z1	X2	Y2	Z2	X3	Y3	Z3	X4	Y4	Z4	X5	Y5	Z5	X6	Y6	Z6	X7	Y7	Z7	X8	Y8	Z8	X9	Y9	Z9	X10	Y10	Z10	X11	Y11	Z11	X12	Y12	Z12	X13	Y13	Z13	X14	Y14	Z14	X15	Y15	Z15	X16	Y16	Z16	X17	Y17	Z17	X18	Y18	Z18	X19	Y19	Z19	X20	Y20	Z20	X21	Y21	Z21	X22	Y22	Z22	X23	Y23	Z23	X24	Y24	Z24	X25	Y25	Z25	X26	Y26	Z26	X27	Y27	Z27	X28	Y28	Z28	X29	Y29	Z29	X30	Y30	Z30	X31	Y31	Z31	X32	Y32	Z32	X33	Y33	Z33	

71	54.245000000000	890.793815140801	994.166259844044	448.646970883966	1079.625207645667	1428.925681763127	288.005120561129	1171.237576509197	1353.910693301819	452.931069379227	1075.210571475096	1420.597971323223	623.435095837637	1050.130393720007	1482.850803654552	442.941773465282	1115.012576558148	928.682148680065	573.650536415379	1108.426222451011	954.385865023581	299.476255434444	1191.996275288153	761.488327488052	547.316583874805	1153.994652715075	640.418744518126	628.550846454172	1245.361190612767	605.615887281311	549.841109395890	1282.785271464215	525.722755596233	568.464773064658	1099.886494517230	724.284811019840	321.696947131809	974.350748818316	635.774425997675	262.872955913872	1031.770240202310	538.418632527077	324.136517249821	1014.775541252422	473.219768343365	333.626943864090	979.501469220034	409.685457998855	328.136680168358	873.367123704315	306.923092736019	283.671908935355	914.009824183443	191.184715494169	355.928382383770	1270.950509452909	437.193164303370	581.288966608736	1223.484617073932	322.246212346374	647.300786890432	1298.448930608945	238.973351587386	599.562431363458	1217.342077831445	46.188510863663	574.309516842370	1373.588208616799	130.251066720690	618.361066660049	1297.252178509765	53.571492402893	652.549272477489	1497.650751633303	102.892690353937	654.406599858347	774.474671954721	41.510978669611	407.827349396207	845.380181167806	36.319783287201	325.288387103861	930.780980411774	96.213727464651	348.174211297268	1056.819524628236	41.883724040617	316.006774537855	1162.484603776207	1110.367927021846	128.378707453453	1416.688468440294	1088.186324881241	156.981657976415	926.710424349039	1106.636376889929	723.549399145391	892.909430248879	849.652891990915	747.645922036970	
72	54.256500000000	892.636635472998	992.040440757167	451.568083262587	1079.469706493763	1427.120127121386	290.106127776286	1172.132303973240	1352.323515309439	454.550438074540	1076.709550001959	1418.935123830969	625.481303933016	1050.686967058470	1480.863582276894	445.066784982396	1117.688337885978	926.200413238819	574.904411062316	1109.413389176549	952.506093740762	300.857251838526	1193.514303050514	757.833217438242	548.018684520321	1154.102077219511	637.017562732417	629.078470170201	1244.577132018152	601.563684396669	549.811631485069	1281.026198449536	522.206800925985	568.117514692308	1099.359227971172	722.328009330498	322.593012925684	972.686172379635	634.924993007635	264.124153711843	1029.431969731162	536.867890432392	324.979244046204	1011.792364237694	471.317726620460	334.402059866153	975.415183516088	408.286996521015	328.830595004353	867.537256539086	307.279993180381	284.324692442481	906.460250005225	190.733845331503	356.129442037506	1270.025574219589	433.558476424228	581.462859567657	1223.133387987154	318.165679534078	646.878953999013	1298.893307783189	235.632690611930	599.237551608041	1219.018714066967	43.397785515507	573.382774945008	1374.856485728126	127.262942901980	618.028729194868	1298.465907252883	50.969644648017	652.015235005098	1498.728867801411	100.145309759901	654.615239934012	765.297844137366	42.098319296291	407.646546644100	836.267385298214	36.531950394285	325.232913444166	921.802156388776	96.254500801030	348.108627536300	1047.668074160554	41.512464745108	315.909490930026	1162.952875490555	1109.422598832036	129.545880820869	1417.125093764223	1097.496909271428	159.262964929475	920.963272819557	1109.958600825303	725.755590334336	880.566565867918	853.985409572433	749.312286286261	
73	54.268000000000	894.615254636100	989.940913513470	454.775550784321	1079.306551236733	1425.314762092569	292.288791058145	1173.067035693711	1350.856485407914	456.283018717837	1078.264007509867	1417.396938601672	627.655882420393	1051.290417897296	1478.968095064313	447.313263291487	1120.467590112055	923.835687808201	576.342762522075	1110.568283621781	950.676258349498	302.372205503376	1195.493222517423	754.619270949315	548.790124670331	1154.687340915300	633.957158601632	629.483800950204	1244.433448786326	598.057122508037	549.829733399458	1279.793511517177	518.793025445424	567.883493283302	1099.318199080468	720.466503262871	323.663744482150	971.602714569108	634.058005817697	265.627048617003	1027.811417322172	535.310858475750	325.985239791629	1009.548674096011	469.326927324800	335.342734673154	971.948190980938	406.802121384853	329.671050959313	862.172717120210	307.779589325353	285.087134396734	899.142535977558	190.328577470992	356.348586726521	1269.085972622136	429.869917629897	581.613204596498	1221.911790621207	314.368515633585	646.297637907860	1297.806835174403	232.070545192152	598.764767535136	1217.498887873500	41.524688506929	572.158902032482	1373.666685825129	123.485988796543	617.486215576325	1296.510205503121	48.381422050213	651.215012072438	1497.047637603027	95.279864017416	654.529706393645	756.126468946327	42.947442981225	407.406745502084	827.181520092787	36.831574163913	325.138841456140	912.920048352899	96.334231356248	347.986869997475	1038.555545475534	41.100066372137	315.799969881056	1162.823151970915	1108.160549793933	130.911445716463	1416.618946553862	1105.584755698435	161.494509909312	916.571062735532	1112.832645193738	728.023244237504	869.926612519703	857.950129449601	750.899334647474	
74	54.279500000000	896.694765323916	987.974956588466	458.205639945658	1079.187628114834	1423.581754742869	294.545351026324	1174.066560074896	1349.568891673392	458.132722822498	1079.893004182340	1416.041804086780	629.956023724063	1051.970013964431	1477.247032980727	449.669709151378	1123.302931910659	921.691568247203	577.986426010167	1111.897466994811	948.981542986858	304.019391210251	1197.857143835464	751.916086791921	549.714162930447	1155.660334909754	631.322253722990	629.850325978997	1244.907705685205	595.186855376607	550.017854942256	1279.089924039759	515.599735914857	567.821091283489	1099.735823889752	718.758719903320	324.902049532068	971.073987748741	633.217636191290	267.370531560052	1026.914643052353	533.790846508641	327.125826736491	1008.072158103342	467.282943905816	336.380841958991	969.098393666091	405.285414142156	330.615806542640	857.267706342909	308.490672166273	285.953825093952	892.082408889717	190.036671230021	356.552178975118	1268.213823989481	426.287141915146	581.790581121805	1220.088465246868	310.963668497832	645.729382324392	1295.487706929897	228.439079073800	598.250679756450	1213.259854289505	40.469636419900	570.874548115354	1370.415878232976	119.178821436320	616.815327953397	1291.935818587813	45.883011444873	650.320396690446	1493.120890469841	88.770685743162	654.151098108090	746.974279210394	44.150213619635	407.103374070874	818.124444338765	37.253668710123	325.002620743339	904.172149360918	96.463911272138	347.778493624219	1029.484041259280	40.668991148889	315.679320166177	1162.059372937866	1106.598655488675	132.507979826107	1415.256774658852	1112.362239496682	163.658851842904	913.599079110915	1115.144435826184	730.329743064808	861.051516910040	861.426454231386	752.476282511425	
